<mxfile host="app.diagrams.net" modified="2023-06-11T23:34:32.335Z" agent="Mozilla/5.0 (Windows NT 10.0; Win64; x64) AppleWebKit/537.36 (KHTML, like Gecko) Chrome/114.0.0.0 Safari/537.36" etag="nhHa5JeWsh2tzBEC2RGH" version="21.3.6" type="device">
  <diagram name="Page-1" id="IH-7cLYdIudaRedUtHeO">
    <mxGraphModel dx="819" dy="437" grid="0" gridSize="10" guides="1" tooltips="1" connect="1" arrows="1" fold="1" page="1" pageScale="1" pageWidth="850" pageHeight="1100" math="0" shadow="0">
      <root>
        <mxCell id="0" />
        <mxCell id="1" parent="0" />
        <mxCell id="x3ias3lyHxFo33vVUtOF-16" value="" style="rounded=0;whiteSpace=wrap;html=1;fontFamily=Helvetica;fontSize=11;dashed=1;dashPattern=8 8;strokeColor=#6c8ebf;fillColor=#dae8fc;" vertex="1" parent="1">
          <mxGeometry x="338" y="147" width="320" height="150" as="geometry" />
        </mxCell>
        <mxCell id="x3ias3lyHxFo33vVUtOF-3" value="Access Point (AP)&lt;br&gt;&lt;i style=&quot;font-weight: bold;&quot;&gt;&lt;font color=&quot;#cc0000&quot;&gt;wifu&lt;/font&gt;&lt;br&gt;&lt;/i&gt;TP-Link AC750" style="whiteSpace=wrap;html=1;aspect=fixed;" vertex="1" parent="1">
          <mxGeometry x="360" y="160" width="120" height="120" as="geometry" />
        </mxCell>
        <mxCell id="x3ias3lyHxFo33vVUtOF-4" value="Wi-Fi Adapter&lt;br&gt;&lt;i&gt;&lt;b&gt;&lt;font color=&quot;#cc0000&quot;&gt;wlan0/mon&lt;br&gt;&lt;/font&gt;&lt;/b&gt;&lt;/i&gt;ALFA AWUS036NHA" style="ellipse;whiteSpace=wrap;html=1;aspect=fixed;" vertex="1" parent="1">
          <mxGeometry x="370" y="320" width="100" height="100" as="geometry" />
        </mxCell>
        <mxCell id="x3ias3lyHxFo33vVUtOF-5" value="Client&lt;br&gt;Raspberry Pi 2" style="rounded=1;whiteSpace=wrap;html=1;" vertex="1" parent="1">
          <mxGeometry x="520" y="190" width="120" height="60" as="geometry" />
        </mxCell>
        <mxCell id="x3ias3lyHxFo33vVUtOF-8" value="VMware&lt;br&gt;Kali Linux" style="shape=hexagon;perimeter=hexagonPerimeter2;whiteSpace=wrap;html=1;fixedSize=1;" vertex="1" parent="1">
          <mxGeometry x="170" y="330" width="120" height="80" as="geometry" />
        </mxCell>
        <mxCell id="x3ias3lyHxFo33vVUtOF-11" value="" style="endArrow=classic;startArrow=classic;html=1;rounded=0;labelBackgroundColor=default;strokeColor=default;fontFamily=Helvetica;fontSize=11;fontColor=default;shape=connector;entryX=0;entryY=0.5;entryDx=0;entryDy=0;" edge="1" parent="1" target="x3ias3lyHxFo33vVUtOF-4">
          <mxGeometry width="50" height="50" relative="1" as="geometry">
            <mxPoint x="290" y="370" as="sourcePoint" />
            <mxPoint x="340" y="320" as="targetPoint" />
          </mxGeometry>
        </mxCell>
        <mxCell id="x3ias3lyHxFo33vVUtOF-12" value="" style="endArrow=classic;startArrow=classic;html=1;rounded=0;labelBackgroundColor=default;strokeColor=default;fontFamily=Helvetica;fontSize=11;fontColor=default;shape=connector;exitX=0.5;exitY=0;exitDx=0;exitDy=0;entryX=0.5;entryY=1;entryDx=0;entryDy=0;" edge="1" parent="1" source="x3ias3lyHxFo33vVUtOF-4" target="x3ias3lyHxFo33vVUtOF-3">
          <mxGeometry width="50" height="50" relative="1" as="geometry">
            <mxPoint x="375" y="330" as="sourcePoint" />
            <mxPoint x="425" y="280" as="targetPoint" />
          </mxGeometry>
        </mxCell>
        <mxCell id="x3ias3lyHxFo33vVUtOF-13" value="" style="endArrow=classic;startArrow=classic;html=1;rounded=0;labelBackgroundColor=default;strokeColor=default;fontFamily=Helvetica;fontSize=11;fontColor=default;shape=connector;" edge="1" parent="1">
          <mxGeometry width="50" height="50" relative="1" as="geometry">
            <mxPoint x="480" y="219.71" as="sourcePoint" />
            <mxPoint x="520" y="219.71" as="targetPoint" />
          </mxGeometry>
        </mxCell>
        <object label="Attacker" Me="" id="x3ias3lyHxFo33vVUtOF-17">
          <mxCell style="shape=umlActor;verticalLabelPosition=bottom;verticalAlign=top;html=1;outlineConnect=0;fontFamily=Helvetica;fontSize=11;fontColor=default;" vertex="1" parent="1">
            <mxGeometry x="215" y="450" width="30" height="60" as="geometry" />
          </mxCell>
        </object>
        <mxCell id="x3ias3lyHxFo33vVUtOF-21" value="" style="endArrow=classic;startArrow=classic;html=1;rounded=0;labelBackgroundColor=default;strokeColor=default;fontFamily=Helvetica;fontSize=11;fontColor=default;shape=connector;exitX=0.5;exitY=0;exitDx=0;exitDy=0;exitPerimeter=0;" edge="1" parent="1" source="x3ias3lyHxFo33vVUtOF-17">
          <mxGeometry width="50" height="50" relative="1" as="geometry">
            <mxPoint x="180" y="460" as="sourcePoint" />
            <mxPoint x="230" y="410" as="targetPoint" />
          </mxGeometry>
        </mxCell>
        <mxCell id="x3ias3lyHxFo33vVUtOF-22" value="&lt;b&gt;LAN&lt;/b&gt;" style="text;html=1;strokeColor=none;fillColor=none;align=center;verticalAlign=middle;whiteSpace=wrap;rounded=0;fontSize=11;fontFamily=Helvetica;fontColor=default;" vertex="1" parent="1">
          <mxGeometry x="598" y="147" width="60" height="30" as="geometry" />
        </mxCell>
      </root>
    </mxGraphModel>
  </diagram>
</mxfile>
